<svg xmlns="http://www.w3.org/2000/svg" viewBox="0 0 64 64"><title>mobile-phone-chat-bubble</title><g id="mobile-hone-chat-bubble"><rect x="2" y="2" width="36" height="60" rx="4" ry="4" fill="#fff"/><rect x="2" y="9" width="36" height="44" fill="#5ce7ff"/><rect x="5" y="12" width="30" height="38" fill="#00c9e0"/><line x1="2" y1="9" x2="38" y2="9" fill="none" stroke="#3e3948" stroke-miterlimit="10" stroke-width="2"/><rect x="2" y="2" width="36" height="60" rx="4" ry="4" fill="none" stroke="#3e3948" stroke-miterlimit="10" stroke-width="2"/><line x1="2" y1="53" x2="38" y2="53" fill="none" stroke="#3e3948" stroke-miterlimit="10" stroke-width="2"/><line x1="16" y1="5.5" x2="24" y2="5.5" fill="none" stroke="#3e3948" stroke-miterlimit="10" stroke-width="2"/><line x1="14" y1="5.5" x2="12" y2="5.5" fill="none" stroke="#3e3948" stroke-miterlimit="10" stroke-width="2"/><line x1="18" y1="57.5" x2="22" y2="57.5" fill="none" stroke="#3e3948" stroke-miterlimit="10" stroke-width="2"/><circle cx="20" cy="47" r="1" fill="#5ce7ff"/><circle cx="24" cy="47" r="1" fill="#5ce7ff"/><circle cx="16" cy="47" r="1" fill="#5ce7ff"/><polygon points="43 36 62 36 62 14 20 14 20 36 30 36 30 45 43 36" fill="#ff504d"/><polygon points="43 36 62 36 62 14 20 14 20 36 30 36 30 45 43 36" fill="none" stroke="#3e3948" stroke-miterlimit="10" stroke-width="2"/><line x1="25" y1="20" x2="35" y2="20" fill="none" stroke="#3e3948" stroke-miterlimit="10" stroke-width="2"/><line x1="37" y1="20" x2="47" y2="20" fill="none" stroke="#3e3948" stroke-miterlimit="10" stroke-width="2"/><line x1="49" y1="20" x2="57" y2="20" fill="none" stroke="#3e3948" stroke-miterlimit="10" stroke-width="2"/><line x1="25" y1="25" x2="57" y2="25" fill="none" stroke="#3e3948" stroke-miterlimit="10" stroke-width="2"/><line x1="25" y1="30" x2="35" y2="30" fill="none" stroke="#3e3948" stroke-miterlimit="10" stroke-width="2"/><line x1="37" y1="30" x2="41" y2="30" fill="none" stroke="#3e3948" stroke-miterlimit="10" stroke-width="2"/><line x1="43" y1="30" x2="45" y2="30" fill="none" stroke="#3e3948" stroke-miterlimit="10" stroke-width="2"/></g></svg>